<svg viewBox="0 0 434 1307" xmlns="http://www.w3.org/2000/svg" xmlns:svg="http://www.w3.org/2000/svg" xmlns:xlink="http://www.w3.org/1999/xlink" preserveAspectRatio="none" version="1.1">  <g id="svg_1">   <rect fill="#90EE90" height="137.84" id="svg_2" stroke="#000000" stroke-width="1.5" width="385.5" x="11" y="45.67"/>   <path d="m103,45.67l0,12.95l-10,10l-82,0" fill="none" id="svg_3" stroke="#000000" stroke-width="1.5"/>   <text fill="#000000" font-family="Segoe UI" font-size="15" id="svg_4" lengthAdjust="spacing" textLength="82" x="14" y="62.85">Initialization</text>   <rect fill="#FFFFFF" height="29.95" id="svg_5" rx="12.5" ry="12.5" stroke="#181818" stroke-width="0.5" width="84" x="228.5" y="83.95"/>   <a id="svg_6" xlink:href="https://docs.unity3d.com/ScriptReference/MonoBehaviour.OnEnable.html" xlink:title="https://docs.unity3d.com/ScriptReference/MonoBehaviour.OnEnable.html">    <text fill="#0000FF" font-family="Segoe UI" font-size="15" id="svg_7" lengthAdjust="spacing" textLength="74" x="233.5" y="105.14">OnEnable()</text>   </a>   <path d="m145,127.92l0,41.92a0,0 0 0 0 0,0l80,0a0,0 0 0 0 0,0l0,-16.96l20,-4l-20,-4l0,-6.96l-10,-10l-70,0a0,0 0 0 0 0,0" fill="#FFFFFF" id="svg_8" stroke="#808080" stroke-width="0.5"/>   <path d="m215,127.92l0,10l10,0l-10,-10" fill="#FFFFFF" id="svg_9" stroke="#808080" stroke-width="0.5"/>   <text fill="#000000" font-family="Segoe UI" font-size="12" id="svg_10" lengthAdjust="spacing" textLength="59" x="151" y="145.87">Only called</text>   <text fill="#000000" font-family="Segoe UI" font-size="12" id="svg_11" lengthAdjust="spacing" textLength="26" x="151" y="161.83">once</text>   <rect fill="#FFFFFF" height="29.95" id="svg_12" rx="12.5" ry="12.5" stroke="#181818" stroke-width="0.5" width="51" x="245" y="133.9"/>   <a id="svg_13" xlink:href="https://docs.unity3d.com/ScriptReference/MonoBehaviour.Start.html" xlink:title="https://docs.unity3d.com/ScriptReference/MonoBehaviour.Start.html">    <text fill="#0000FF" font-family="Segoe UI" font-size="15" id="svg_14" lengthAdjust="spacing" textLength="41" x="250" y="155.09">Start()</text>   </a>   <rect fill="#ADD8E6" height="902.18" id="svg_15" stroke="#000000" stroke-width="1.5" width="385.5" x="11" y="191.84"/>   <path d="m108,191.84l0,12.95l-10,10l-87,0" fill="none" id="svg_16" stroke="#000000" stroke-width="1.5"/>   <text fill="#000000" font-family="Segoe UI" font-size="15" id="svg_17" lengthAdjust="spacing" textLength="87" x="14" y="209.03">Update Loop</text>   <path d="m21,265.79l0,57.88a0,0 0 0 0 0,0l161,0a0,0 0 0 0 0,0l0,-24.94l20,-4l-20,-4l0,-14.94l-10,-10l-151,0a0,0 0 0 0 0,0" fill="#FFFFFF" id="svg_18" stroke="#808080" stroke-width="0.5"/>   <path d="m172,265.79l0,10l10,0l-10,-10" fill="#FFFFFF" id="svg_19" stroke="#808080" stroke-width="0.5"/>   <a id="svg_20" xlink:href="https://docs.vrchat.com/docs/network-components#ondeserialization" xlink:title="https://docs.vrchat.com/docs/network-components#ondeserialization">    <text fill="#0000FF" font-family="Segoe UI" font-size="12" id="svg_21" lengthAdjust="spacing" textLength="100" x="27" y="283.74">OnDeserialization()</text>   </a>   <a id="svg_22" xlink:href="https://docs.vrchat.com/docs/network-components#onownershiptransferred" xlink:title="https://docs.vrchat.com/docs/network-components#onownershiptransferred">    <text fill="#0000FF" font-family="Segoe UI" font-size="12" id="svg_23" lengthAdjust="spacing" textLength="140" x="27" y="299.7">OnOwnershipTransferred()</text>   </a>   <text fill="#000000" font-family="Segoe UI" font-size="12" id="svg_24" lengthAdjust="spacing" textLength="15" x="90" y="315.66">•••</text>   <rect fill="#FFFFFF" height="29.95" id="svg_25" stroke="#181818" stroke-width="0.5" width="137" x="202" y="279.76"/>   <a id="svg_26" xlink:href="https://docs.vrchat.com/docs/udon-networking" xlink:title="https://docs.vrchat.com/docs/udon-networking">    <text fill="#0000FF" font-family="Segoe UI" font-size="15" id="svg_27" lengthAdjust="spacing" textLength="123" x="207" y="300.94">Networking Events</text>   </a>   <text fill="#000000" font-family="Segoe UI" font-size="15" id="svg_28" lengthAdjust="spacing" textLength="4" x="330" y="300.94"/>   <rect fill="#FFFFFF" height="342.63" id="svg_29" stroke="#000000" stroke-width="1.5" width="299" x="69.5" y="333.67"/>   <path d="m201.5,333.67l0,12.95l-10,10l-122,0" fill="none" id="svg_30" stroke="#000000" stroke-width="1.5"/>   <text fill="#000000" font-family="Segoe UI" font-size="15" id="svg_31" lengthAdjust="spacing" textLength="122" x="72.5" y="350.86">FixedUpdate Loop</text>   <path d="m79.5,411.64l0,41.92a0,0 0 0 0 0,0l119,0a0,0 0 0 0 0,0l0,-16.96l20,-4l-20,-4l0,-6.96l-10,-10l-109,0a0,0 0 0 0 0,0" fill="#FFFFFF" id="svg_32" stroke="#808080" stroke-width="0.5"/>   <path d="m188.5,411.64l0,10l10,0l-10,-10" fill="#FFFFFF" id="svg_33" stroke="#808080" stroke-width="0.5"/>   <text fill="#000000" font-family="Segoe UI" font-size="12" id="svg_34" lengthAdjust="spacing" textLength="98" x="85.5" y="429.59">Matches the user&#x27;s</text>   <text fill="#000000" font-family="Segoe UI" font-size="12" id="svg_35" lengthAdjust="spacing" textLength="96" x="85.5" y="445.55">screen refresh rate</text>   <rect fill="#FFFFFF" height="29.95" id="svg_36" rx="12.5" ry="12.5" stroke="#181818" stroke-width="0.5" width="104" x="218.5" y="417.62"/>   <a id="svg_37" xlink:href="https://docs.unity3d.com/ScriptReference/MonoBehaviour.FixedUpdate.html" xlink:title="https://docs.unity3d.com/ScriptReference/MonoBehaviour.FixedUpdate.html">    <text fill="#0000FF" font-family="Segoe UI" font-size="15" id="svg_38" lengthAdjust="spacing" textLength="94" x="223.5" y="438.81">FixedUpdate()</text>   </a>   <rect fill="#FFFFFF" height="29.95" id="svg_39" stroke="#181818" stroke-width="0.5" width="129" x="206" y="473.56"/>   <a id="svg_40" xlink:href="https://docs.unity3d.com/Manual/AnimationEventsOnImportedClips.html" xlink:title="https://docs.unity3d.com/Manual/AnimationEventsOnImportedClips.html">    <text fill="#0000FF" font-family="Segoe UI" font-size="15" id="svg_41" lengthAdjust="spacing" textLength="115" x="211" y="494.75">Animation Events</text>   </a>   <text fill="#000000" font-family="Segoe UI" font-size="15" id="svg_42" lengthAdjust="spacing" textLength="4" x="326" y="494.75"/>   <path d="m84,524.5l0,73.84a0,0 0 0 0 0,0l108,0a0,0 0 0 0 0,0l0,-32.92l20,-4l-20,-4l0,-22.92l-10,-10l-98,0a0,0 0 0 0 0,0" fill="#FFFFFF" id="svg_43" stroke="#808080" stroke-width="0.5"/>   <path d="m182,524.5l0,10l10,0l-10,-10" fill="#FFFFFF" id="svg_44" stroke="#808080" stroke-width="0.5"/>   <a id="svg_45" xlink:href="https://docs.vrchat.com/docs/player-collisions" xlink:title="https://docs.vrchat.com/docs/player-collisions">    <text fill="#0000FF" font-family="Segoe UI" font-size="12" id="svg_46" lengthAdjust="spacing" textLength="73" x="90" y="542.45">OnPlayer[...]()</text>   </a>   <a id="svg_47" xlink:href="https://docs.unity3d.com/ScriptReference/Collider.OnTriggerEnter.html" xlink:title="https://docs.unity3d.com/ScriptReference/Collider.OnTriggerEnter.html">    <text fill="#0000FF" font-family="Segoe UI" font-size="12" id="svg_48" lengthAdjust="spacing" textLength="78" x="90" y="558.41">OnTrigger[...]()</text>   </a>   <a id="svg_49" xlink:href="https://docs.unity3d.com/ScriptReferenceCollider.OnCollisionEnter.html" xlink:title="https://docs.unity3d.com/ScriptReferenceCollider.OnCollisionEnter.html">    <text fill="#0000FF" font-family="Segoe UI" font-size="12" id="svg_50" lengthAdjust="spacing" textLength="87" x="90" y="574.37">OnCollision[...]()</text>   </a>   <text fill="#000000" font-family="Segoe UI" font-size="12" id="svg_51" lengthAdjust="spacing" textLength="15" x="123" y="590.33">•••</text>   <rect fill="#FFFFFF" height="29.95" id="svg_52" stroke="#181818" stroke-width="0.5" width="117" x="212" y="546.44"/>   <a id="svg_53" xlink:href="https://docs.unity3d.com/ScriptReference/Collider.OnCollisionEnter.html" xlink:title="https://docs.unity3d.com/ScriptReference/Collider.OnCollisionEnter.html">    <text fill="#0000FF" font-family="Segoe UI" font-size="15" id="svg_54" lengthAdjust="spacing" textLength="103" x="217" y="567.63">Collision events</text>   </a>   <text fill="#000000" font-family="Segoe UI" font-size="15" id="svg_55" lengthAdjust="spacing" textLength="4" x="320" y="567.63"/>   <polygon fill="#FFFFFF" id="svg_56" points="270.5,373.624,282.5,385.624,270.5,397.624,258.5,385.624,270.5,373.624" stroke="#181818" stroke-width="0.5"/>   <polygon fill="#FFFFFF" id="svg_57" points="270.5,632.3018,270.5,632.3018,282.5,644.3018,270.5,656.3018,270.5,656.3018,258.5,644.3018,270.5,632.3018" stroke="#181818" stroke-width="0.5"/>   <path d="m117.5,686.3l0,57.88a0,0 0 0 0 0,0l86,0a0,0 0 0 0 0,0l0,-24.94l20,-4l-20,-4l0,-14.94l-10,-10l-76,0a0,0 0 0 0 0,0" fill="#FFFFFF" id="svg_58" stroke="#808080" stroke-width="0.5"/>   <path d="m193.5,686.3l0,10l10,0l-10,-10" fill="#FFFFFF" id="svg_59" stroke="#808080" stroke-width="0.5"/>   <a id="svg_60" xlink:href="https://docs.vrchat.com/docs/event-nodes#onpickup" xlink:title="https://docs.vrchat.com/docs/event-nodes#onpickup">    <text fill="#0000FF" font-family="Segoe UI" font-size="12" id="svg_61" lengthAdjust="spacing" textLength="60" x="123.5" y="704.25">OnPickup()</text>   </a>   <a id="svg_62" xlink:href="https://docs.vrchat.com/docs/input-events" xlink:title="https://docs.vrchat.com/docs/input-events">    <text fill="#0000FF" font-family="Segoe UI" font-size="12" id="svg_63" lengthAdjust="spacing" textLength="65" x="123.5" y="720.21">InputJump()</text>   </a>   <text fill="#000000" font-family="Segoe UI" font-size="12" id="svg_64" lengthAdjust="spacing" textLength="15" x="150.5" y="736.17">•••</text>   <rect fill="#FFFFFF" height="29.95" id="svg_65" stroke="#181818" stroke-width="0.5" width="94" x="223.5" y="700.27"/>   <a id="svg_66" xlink:href="https://docs.unity3d.com/ScriptReference/MonoBehaviour.OnMouseDown.html" xlink:title="https://docs.unity3d.com/ScriptReference/MonoBehaviour.OnMouseDown.html">    <text fill="#0000FF" font-family="Segoe UI" font-size="15" id="svg_67" lengthAdjust="spacing" textLength="80" x="228.5" y="721.45">Input events</text>   </a>   <text fill="#000000" font-family="Segoe UI" font-size="15" id="svg_68" lengthAdjust="spacing" textLength="4" x="308.5" y="721.45"/>   <rect fill="#FFFFFF" height="29.95" id="svg_69" rx="12.5" ry="12.5" stroke="#181818" stroke-width="0.5" width="69" x="236" y="764.18"/>   <a id="svg_70" xlink:href="https://docs.unity3d.com/ScriptReference/MonoBehaviour.Update.html" xlink:title="https://docs.unity3d.com/ScriptReference/MonoBehaviour.Update.html">    <text fill="#0000FF" font-family="Segoe UI" font-size="15" id="svg_71" lengthAdjust="spacing" textLength="59" x="241" y="785.37">Update()</text>   </a>   <rect fill="#FFFFFF" height="29.95" id="svg_72" stroke="#181818" stroke-width="0.5" width="129" x="206" y="814.14"/>   <a id="svg_73" xlink:href="https://docs.unity3d.com/Manual/AnimationEventsOnImportedClips.html" xlink:title="https://docs.unity3d.com/Manual/AnimationEventsOnImportedClips.html">    <text fill="#0000FF" font-family="Segoe UI" font-size="15" id="svg_74" lengthAdjust="spacing" textLength="115" x="211" y="835.32">Animation Events</text>   </a>   <text fill="#000000" font-family="Segoe UI" font-size="15" id="svg_75" lengthAdjust="spacing" textLength="4" x="326" y="835.32"/>   <rect fill="#FFFFFF" height="29.95" id="svg_76" rx="12.5" ry="12.5" stroke="#181818" stroke-width="0.5" width="97" x="222" y="864.09"/>   <a id="svg_77" xlink:href="https://docs.unity3d.com/ScriptReference/MonoBehaviour.LateUpdate.html" xlink:title="https://docs.unity3d.com/ScriptReference/MonoBehaviour.LateUpdate.html">    <text fill="#0000FF" font-family="Segoe UI" font-size="15" id="svg_78" lengthAdjust="spacing" textLength="87" x="227" y="885.27">LateUpdate()</text>   </a>   <path d="m81,904.04l0,57.88a0,0 0 0 0 0,0l107,0a0,0 0 0 0 0,0l0,-24.94l20,-4l-20,-4l0,-14.94l-10,-10l-97,0a0,0 0 0 0 0,0" fill="#FFFFFF" id="svg_79" stroke="#808080" stroke-width="0.5"/>   <path d="m178,904.04l0,10l10,0l-10,-10" fill="#FFFFFF" id="svg_80" stroke="#808080" stroke-width="0.5"/>   <a id="svg_81" xlink:href="https://docs.vrchat.com/docs/player-positions" xlink:title="https://docs.vrchat.com/docs/player-positions">    <text fill="#0000FF" font-family="Segoe UI" font-size="12" id="svg_82" lengthAdjust="spacing" textLength="78" x="87" y="921.99">Player position</text>   </a>   <text fill="#000000" font-family="Segoe UI" font-size="12" id="svg_83" lengthAdjust="spacing" textLength="86" x="87" y="937.95">is most accurate</text>   <text fill="#000000" font-family="Segoe UI" font-size="12" id="svg_84" lengthAdjust="spacing" textLength="64" x="87" y="953.91">in this event</text>   <rect fill="#FFFFFF" height="29.95" id="svg_85" rx="12.5" ry="12.5" stroke="#181818" stroke-width="0.5" width="125" x="208" y="918"/>   <a id="svg_86" xlink:href="https://docs.vrchat.com/docs/vrchat-202131" xlink:title="https://docs.vrchat.com/docs/vrchat-202131">    <text fill="#0000FF" font-family="Segoe UI" font-size="15" id="svg_87" lengthAdjust="spacing" textLength="115" x="213" y="939.19">PostLateUpdate()</text>   </a>   <path d="m65.5,971.92l0,57.88a0,0 0 0 0 0,0l121,0a0,0 0 0 0 0,0l0,-24.94l20,-4l-20,-4l0,-14.94l-10,-10l-111,0a0,0 0 0 0 0,0" fill="#FFFFFF" id="svg_88" stroke="#808080" stroke-width="0.5"/>   <path d="m176.5,971.92l0,10l10,0l-10,-10" fill="#FFFFFF" id="svg_89" stroke="#808080" stroke-width="0.5"/>   <a id="svg_90" xlink:href="https://docs.unity3d.com/ScriptReference/MonoBehaviour.OnBecameVisible.html" xlink:title="https://docs.unity3d.com/ScriptReference/MonoBehaviour.OnBecameVisible.html">    <text fill="#0000FF" font-family="Segoe UI" font-size="12" id="svg_91" lengthAdjust="spacing" textLength="100" x="71.5" y="989.87">OnBecameVisible()</text>   </a>   <a id="svg_92" xlink:href="https://docs.unity3d.com/ScriptReference/MonoBehaviour.OnRenderImage.html" xlink:title="https://docs.unity3d.com/ScriptReference/MonoBehaviour.OnRenderImage.html">    <text fill="#0000FF" font-family="Segoe UI" font-size="12" id="svg_93" lengthAdjust="spacing" textLength="94" x="71.5" y="1005.83">OnRenderImage()</text>   </a>   <text fill="#000000" font-family="Segoe UI" font-size="12" id="svg_94" lengthAdjust="spacing" textLength="15" x="113.5" y="1021.79">•••</text>   <rect fill="#FFFFFF" height="29.95" id="svg_95" stroke="#181818" stroke-width="0.5" width="128" x="206.5" y="985.89"/>   <a id="svg_96" xlink:href="https://docs.unity3d.com/Manual/ExecutionOrder.html" xlink:title="https://docs.unity3d.com/Manual/ExecutionOrder.html">    <text fill="#0000FF" font-family="Segoe UI" font-size="15" id="svg_97" lengthAdjust="spacing" textLength="114" x="211.5" y="1007.07">Rendering Events</text>   </a>   <text fill="#000000" font-family="Segoe UI" font-size="15" id="svg_98" lengthAdjust="spacing" textLength="4" x="325.5" y="1007.07"/>   <polygon fill="#FFFFFF" id="svg_99" points="270.5,231.79,282.5,243.79,270.5,255.79,258.5,243.79,270.5,231.79" stroke="#181818" stroke-width="0.5"/>   <polygon fill="#FFFFFF" id="svg_100" points="270.5,1050.0195,270.5,1050.0195,282.5,1062.0195,270.5,1074.0195,270.5,1074.0195,258.5,1062.0195,270.5,1050.0195" stroke="#181818" stroke-width="0.5"/>   <text fill="#000000" font-family="Segoe UI" font-size="15" id="svg_101" lengthAdjust="spacing" textLength="59" x="274.5" y="1090.21">Disabled</text>   <text fill="#000000" font-family="Segoe UI" font-size="15" id="svg_102" lengthAdjust="spacing" textLength="74" x="282.5" y="1058.25">Next frame</text>   <rect fill="#FA8072" height="195.57" id="svg_103" stroke="#000000" stroke-width="1.5" width="385.33" x="11.33" y="1105.95"/>   <path d="m140.33,1105.95l0,12.96l-10,10l-119,0" fill="none" id="svg_104" stroke="#000000" stroke-width="1.5"/>   <text fill="#000000" font-family="Segoe UI" font-size="15" id="svg_105" lengthAdjust="spacing" textLength="119" x="14.33" y="1123.14">Decommissioning</text>   <rect fill="#FFFFFF" height="29.95" id="svg_106" rx="12.5" ry="12.5" stroke="#181818" stroke-width="0.5" width="89" x="226" y="1145.24"/>   <a id="svg_107" xlink:href="https://docs.unity3d.com/ScriptReference/MonoBehaviour.OnDisable.html" xlink:title="https://docs.unity3d.com/ScriptReference/MonoBehaviour.OnDisable.html">    <text fill="#0000FF" font-family="Segoe UI" font-size="15" id="svg_108" lengthAdjust="spacing" textLength="79" x="231" y="1166.42">OnDisable()</text>   </a>   <polygon fill="#FFFFFF" id="svg_109" points="270.5,10,282.5,22,270.5,34,258.5,22,270.5,10" stroke="#181818" stroke-width="0.5"/>   <polygon fill="#FFFFFF" id="svg_110" points="270.5,1207.4023,270.5,1207.4023,282.5,1219.4023,270.5,1231.4023,270.5,1231.4023,258.5,1219.4023,270.5,1207.4023" stroke="#181818" stroke-width="0.5"/>   <text fill="#000000" font-family="Segoe UI" font-size="15" id="svg_111" lengthAdjust="spacing" textLength="68" x="274.5" y="1247.59">Destroyed</text>   <text fill="#000000" font-family="Segoe UI" font-size="15" id="svg_112" lengthAdjust="spacing" textLength="54" x="282.5" y="1215.64">Enabled</text>   <rect fill="#FFFFFF" height="29.95" id="svg_113" rx="12.5" ry="12.5" stroke="#181818" stroke-width="0.5" width="90" x="225.5" y="1266.4"/>   <a id="svg_114" xlink:href="https://docs.unity3d.com/ScriptReference/MonoBehaviour.OnDestroy.html" xlink:title="https://docs.unity3d.com/ScriptReference/MonoBehaviour.OnDestroy.html">    <text fill="#0000FF" font-family="Segoe UI" font-size="15" id="svg_115" lengthAdjust="spacing" textLength="80" x="230.5" y="1287.59">OnDestroy()</text>   </a>   <line id="svg_116" stroke="#181818" stroke-width="1" x1="270.5" x2="270.5" y1="113.9" y2="133.9"/>   <polygon fill="#181818" id="svg_117" points="266.5,123.9023,270.5,133.9023,274.5,123.9023,270.5,127.9023" stroke="#181818" stroke-width="1"/>   <line id="svg_118" stroke="#181818" stroke-width="1" x1="270.5" x2="270.5" y1="447.58" y2="473.56"/>   <polygon fill="#181818" id="svg_119" points="266.5,463.5605,270.5,473.5605,274.5,463.5605,270.5,467.5605" stroke="#181818" stroke-width="1"/>   <line id="svg_120" stroke="#181818" stroke-width="1" x1="270.5" x2="270.5" y1="503.51" y2="546.44"/>   <polygon fill="#181818" id="svg_121" points="266.5,536.4434,270.5,546.4434,274.5,536.4434,270.5,540.4434" stroke="#181818" stroke-width="1"/>   <line id="svg_122" stroke="#181818" stroke-width="1" x1="270.5" x2="270.5" y1="397.62" y2="417.62"/>   <polygon fill="#181818" id="svg_123" points="266.5,407.624,270.5,417.624,274.5,407.624,270.5,411.624" stroke="#181818" stroke-width="1"/>   <line id="svg_124" stroke="#181818" stroke-width="1" x1="282.5" x2="347" y1="644.3" y2="644.3"/>   <polygon fill="#181818" id="svg_125" points="343,514.4971,347,504.4971,351,514.4971,347,510.4971" stroke="#181818" stroke-width="1"/>   <line id="svg_126" stroke="#181818" stroke-width="1" x1="347" x2="347" y1="385.62" y2="644.3"/>   <line id="svg_127" stroke="#181818" stroke-width="1" x1="347" x2="282.5" y1="385.62" y2="385.62"/>   <polygon fill="#181818" id="svg_128" points="292.5,381.624,282.5,385.624,292.5,389.624,288.5,385.624" stroke="#181818" stroke-width="1"/>   <line id="svg_129" stroke="#181818" stroke-width="1" x1="270.5" x2="270.5" y1="576.39" y2="632.3"/>   <polygon fill="#181818" id="svg_130" points="266.5,622.3018,270.5,632.3018,274.5,622.3018,270.5,626.3018" stroke="#181818" stroke-width="1"/>   <line id="svg_131" stroke="#181818" stroke-width="1" x1="270.5" x2="270.5" y1="309.71" y2="373.62"/>   <polygon fill="#181818" id="svg_132" points="266.5,363.624,270.5,373.624,274.5,363.624,270.5,367.624" stroke="#181818" stroke-width="1"/>   <line id="svg_133" stroke="#181818" stroke-width="1" x1="270.5" x2="270.5" y1="656.3" y2="700.27"/>   <polygon fill="#181818" id="svg_134" points="266.5,690.2676,270.5,700.2676,274.5,690.2676,270.5,694.2676" stroke="#181818" stroke-width="1"/>   <line id="svg_135" stroke="#181818" stroke-width="1" x1="270.5" x2="270.5" y1="730.22" y2="764.18"/>   <polygon fill="#181818" id="svg_136" points="266.5,754.1846,270.5,764.1846,274.5,754.1846,270.5,758.1846" stroke="#181818" stroke-width="1"/>   <line id="svg_137" stroke="#181818" stroke-width="1" x1="270.5" x2="270.5" y1="794.14" y2="814.14"/>   <polygon fill="#181818" id="svg_138" points="266.5,804.1357,270.5,814.1357,274.5,804.1357,270.5,808.1357" stroke="#181818" stroke-width="1"/>   <line id="svg_139" stroke="#181818" stroke-width="1" x1="270.5" x2="270.5" y1="844.09" y2="864.09"/>   <polygon fill="#181818" id="svg_140" points="266.5,854.0869,270.5,864.0869,274.5,854.0869,270.5,858.0869" stroke="#181818" stroke-width="1"/>   <line id="svg_141" stroke="#181818" stroke-width="1" x1="270.5" x2="270.5" y1="894.04" y2="918"/>   <polygon fill="#181818" id="svg_142" points="266.5,908.0039,270.5,918.0039,274.5,908.0039,270.5,912.0039" stroke="#181818" stroke-width="1"/>   <line id="svg_143" stroke="#181818" stroke-width="1" x1="270.5" x2="270.5" y1="947.96" y2="985.89"/>   <polygon fill="#181818" id="svg_144" points="266.5,975.8867,270.5,985.8867,274.5,975.8867,270.5,979.8867" stroke="#181818" stroke-width="1"/>   <line id="svg_145" stroke="#181818" stroke-width="1" x1="270.5" x2="270.5" y1="255.79" y2="279.76"/>   <polygon fill="#181818" id="svg_146" points="266.5,269.7559,270.5,279.7559,274.5,269.7559,270.5,273.7559" stroke="#181818" stroke-width="1"/>   <line id="svg_147" stroke="#181818" stroke-width="1" x1="282.5" x2="380.5" y1="1062.02" y2="1062.02"/>   <polygon fill="#181818" id="svg_148" points="376.5,666.7773,380.5,656.7773,384.5,666.7773,380.5,662.7773" stroke="#181818" stroke-width="1"/>   <line id="svg_149" stroke="#181818" stroke-width="1" x1="380.5" x2="380.5" y1="243.79" y2="1062.02"/>   <line id="svg_150" stroke="#181818" stroke-width="1" x1="380.5" x2="282.5" y1="243.79" y2="243.79"/>   <polygon fill="#181818" id="svg_151" points="292.5,239.79,282.5,243.79,292.5,247.79,288.5,243.79" stroke="#181818" stroke-width="1"/>   <line id="svg_152" stroke="#181818" stroke-width="1" x1="270.5" x2="270.5" y1="1015.84" y2="1050.02"/>   <polygon fill="#181818" id="svg_153" points="266.5,1040.0195,270.5,1050.0195,274.5,1040.0195,270.5,1044.0195" stroke="#181818" stroke-width="1"/>   <line id="svg_154" stroke="#181818" stroke-width="1" x1="270.5" x2="270.5" y1="163.85" y2="231.79"/>   <polygon fill="#181818" id="svg_155" points="266.5,221.79,270.5,231.79,274.5,221.79,270.5,225.79" stroke="#181818" stroke-width="1"/>   <line id="svg_156" stroke="#181818" stroke-width="1" x1="270.5" x2="270.5" y1="1074.02" y2="1145.24"/>   <polygon fill="#181818" id="svg_157" points="266.5,1135.2354,270.5,1145.2354,274.5,1135.2354,270.5,1139.2354" stroke="#181818" stroke-width="1"/>   <line id="svg_158" stroke="#181818" stroke-width="1" x1="270.5" x2="270.5" y1="34" y2="83.95"/>   <polygon fill="#181818" id="svg_159" points="266.5,73.9512,270.5,83.9512,274.5,73.9512,270.5,77.9512" stroke="#181818" stroke-width="1"/>   <line id="svg_160" stroke="#181818" stroke-width="1" x1="282.5" x2="408.5" y1="1219.4" y2="1219.4"/>   <polygon fill="#181818" id="svg_161" points="404.5,618.3408,408.5,608.3408,412.5,618.3408,408.5,614.3408" stroke="#181818" stroke-width="1"/>   <line id="svg_162" stroke="#181818" stroke-width="1" x1="408.5" x2="408.5" y1="22" y2="1219.4"/>   <line id="svg_163" stroke="#181818" stroke-width="1" x1="408.5" x2="282.5" y1="22" y2="22"/>   <polygon fill="#181818" id="svg_164" points="292.5,18,282.5,22,292.5,26,288.5,22" stroke="#181818" stroke-width="1"/>   <line id="svg_165" stroke="#181818" stroke-width="1" x1="270.5" x2="270.5" y1="1175.19" y2="1207.4"/>   <polygon fill="#181818" id="svg_166" points="266.5,1197.4023,270.5,1207.4023,274.5,1197.4023,270.5,1201.4023" stroke="#181818" stroke-width="1"/>   <line id="svg_167" stroke="#181818" stroke-width="1" x1="270.5" x2="270.5" y1="1231.4" y2="1266.4"/>   <polygon fill="#181818" id="svg_168" points="266.5,1256.4023,270.5,1266.4023,274.5,1256.4023,270.5,1260.4023" stroke="#181818" stroke-width="1"/>   </g></svg>