<svg xmlns="http://www.w3.org/2000/svg" height="738" preserveAspectRatio="none" style="width:729px;height:738px;background:#fff" width="729"><path fill="#FFF1CC" stroke="#fff1cc" d="M15 13.018h241v713.314H15z"/><circle cx="136.5" cy="75.9" fill="#222" stroke="#222" r="10"/><path fill="#FFF" stroke="#cdcdcd" stroke-width=".5" d="M76.5 105.9h120v35.961h-120z"/><text font-family="Segoe UI" font-size="12" textLength="55" x="86.5" y="128.85">SetOwner(</text><text fill="#ED8E00" font-family="Segoe UI" font-size="12" font-weight="bold" textLength="41" x="141.5" y="128.85">Orange</text><text font-family="Segoe UI" font-size="12" textLength="4" x="182.5" y="128.85">)</text><rect fill="#FFF" height="35.961" rx="12.5" ry="12.5" width="231" x="21" y="161.861" stroke="#cdcdcd" stroke-width=".5"/><text font-family="Segoe UI" font-size="12" textLength="119" x="31" y="184.81">OnOwnershipRequest(</text><text fill="#ED8E00" font-family="Segoe UI" font-size="12" font-weight="bold" textLength="41" x="150" y="184.81">Orange</text><text font-family="Segoe UI" font-size="12" textLength="3" x="191" y="184.81">,</text><text fill="#ED8E00" font-family="Segoe UI" font-size="12" font-weight="bold" textLength="41" x="197" y="184.81">Orange</text><text font-family="Segoe UI" font-size="12" textLength="4" x="238" y="184.81">)</text><path fill="#FFF" stroke="#cdcdcd" stroke-width=".5" d="M120.5 217.822h32l12 12-12 12h-32l-12-12 12-12z"/><text font-family="Segoe UI" font-size="11" textLength="21" x="140.5" y="253.692">true</text><text font-family="Segoe UI" font-size="11" textLength="32" x="120.5" y="234.377">return</text><text font-family="Segoe UI" font-size="11" textLength="24" x="164.5" y="227.061">false</text><circle cx="210.5" cy="229.822" fill="none" stroke="#222" r="11"/><circle cx="210.5" cy="229.822" fill="#222" stroke="#111" r="6"/><rect fill="#FFF" height="35.961" rx="12.5" ry="12.5" width="201" x="36" y="275.192" stroke="#cdcdcd" stroke-width=".5"/><text font-family="Segoe UI" font-size="12" textLength="136" x="46" y="298.142">OnOwnershipTransferred(</text><text fill="#ED8E00" font-family="Segoe UI" font-size="12" font-weight="bold" textLength="41" x="182" y="298.142">Orange</text><text font-family="Segoe UI" font-size="12" textLength="4" x="223" y="298.142">)</text><rect fill="#FFF" height="35.961" rx="12.5" ry="12.5" width="185" x="44" y="450.68" stroke="#cdcdcd" stroke-width=".5"/><text font-family="Segoe UI" font-size="12" textLength="136" x="54" y="473.629">OnOwnershipTransferred(</text><text fill="#342CD1" font-family="Segoe UI" font-size="12" font-weight="bold" textLength="25" x="190" y="473.629">Blue</text><text font-family="Segoe UI" font-size="12" textLength="4" x="215" y="473.629">)</text><circle cx="136.5" cy="525.16" fill="none" stroke="#222" r="11"/><circle cx="136.5" cy="525.16" fill="#222" stroke="#111" r="6"/><path stroke="#000" stroke-width="1.5" d="M15 13.018v713.314"/><path fill="#CCF9FF" stroke="#ccf9ff" d="M256 13.018h243v713.314H256z"/><rect fill="#FFF" height="35.961" rx="12.5" ry="12.5" width="231" x="262" y="345.403" stroke="#cdcdcd" stroke-width=".5"/><text font-family="Segoe UI" font-size="12" textLength="119" x="272" y="368.353">OnOwnershipRequest(</text><text fill="#ED8E00" font-family="Segoe UI" font-size="12" font-weight="bold" textLength="41" x="391" y="368.353">Orange</text><text font-family="Segoe UI" font-size="12" textLength="3" x="432" y="368.353">,</text><text fill="#ED8E00" font-family="Segoe UI" font-size="12" font-weight="bold" textLength="41" x="438" y="368.353">Orange</text><text font-family="Segoe UI" font-size="12" textLength="4" x="479" y="368.353">)</text><path fill="#FFF" stroke="#cdcdcd" stroke-width=".5" d="M361.5 401.364h32l12 12-12 12h-32l-12-12 12-12z"/><path d="M385.938 429.912a6.394 6.394 0 00-3.438.999l.486.743a5.466 5.466 0 012.952-.835c1.1 0 2.126.284 2.979.834l.486-.742c-1-.642-2.2-1-3.466-1m0 2.75c-.724 0-1.375.212-1.952.578l.486.77c.43-.275.916-.43 1.457-.43s1.064.155 1.495.43l.485-.77a3.737 3.737 0 00-1.98-.577m.01 2.75a.92.92 0 00-.917.917.92.92 0 00.916.916.92.92 0 00.917-.916.92.92 0 00-.916-.917"/><text font-family="Segoe UI" font-size="11" textLength="24" x="390.833" y="437.234">false</text><text font-family="Segoe UI" font-size="11" textLength="32" x="361.5" y="417.919">return</text><text font-family="Segoe UI" font-size="11" textLength="21" x="405.5" y="410.603">true</text><rect fill="#FFF" height="35.961" rx="12.5" ry="12.5" width="201" x="277" y="578.16" stroke="#cdcdcd" stroke-width=".5"/><text font-family="Segoe UI" font-size="12" textLength="136" x="287" y="601.109">OnOwnershipTransferred(</text><text fill="#ED8E00" font-family="Segoe UI" font-size="12" font-weight="bold" textLength="41" x="423" y="601.109">Orange</text><text font-family="Segoe UI" font-size="12" textLength="4" x="464" y="601.109">)</text><path stroke="#000" stroke-width="1.5" d="M256 13.018v713.314"/><path fill="#B8FFBE" stroke="#b8ffbe" d="M499 13.018h211v713.314H499z"/><rect fill="#FFF" height="35.961" rx="12.5" ry="12.5" width="201" x="505" y="648.371" stroke="#cdcdcd" stroke-width=".5"/><text font-family="Segoe UI" font-size="12" textLength="136" x="515" y="671.32">OnOwnershipTransferred(</text><text fill="#ED8E00" font-family="Segoe UI" font-size="12" font-weight="bold" textLength="41" x="651" y="671.32">Orange</text><text font-family="Segoe UI" font-size="12" textLength="4" x="692" y="671.32">)</text><circle cx="605.5" cy="715.332" fill="none" stroke="#222" r="11"/><circle cx="605.5" cy="715.332" fill="#222" stroke="#111" r="6"/><path stroke="#000" stroke-width="1.5" d="M499 13.018v713.314M710 13.018v713.314"/><path stroke="#181818" d="M136.5 85.9v20"/><path fill="#181818" stroke="#181818" d="M132.5 95.9l4 10 4-10-4 4z"/><path stroke="#181818" d="M136.5 141.861v20"/><path fill="#181818" stroke="#181818" d="M132.5 151.861l4 10 4-10-4 4z"/><path stroke="#181818" d="M136.5 241.822v33.37"/><path fill="#181818" stroke="#181818" d="M132.5 265.192l4 10 4-10-4 4z"/><path stroke="#181818" d="M164.5 229.822h35"/><path fill="#181818" stroke="#181818" d="M189.5 225.822l10 4-10 4 4-4z"/><path stroke="#181818" d="M136.5 197.822v20"/><path fill="#181818" stroke="#181818" d="M132.5 207.822l4 10 4-10-4 4z"/><path stroke="#181818" d="M136.5 486.641v27.519"/><path fill="#181818" stroke="#181818" d="M132.5 504.16l4 10 4-10-4 4z"/><path stroke="#181818" d="M405.5 413.364H480"/><path fill="#181818" stroke="#181818" d="M476 484.16l4 10 4-10-4 4z"/><path stroke="#181818" d="M480 413.364V558.16M480 558.16H377.5M377.5 558.16v20"/><path fill="#181818" stroke="#181818" d="M373.5 568.16l4 10 4-10-4 4z"/><path stroke="#181818" d="M377.5 381.364v20"/><path fill="#181818" stroke="#181818" d="M373.5 391.364l4 10 4-10-4 4z"/><path stroke="#181818" d="M605.5 684.332v20"/><path fill="#181818" stroke="#181818" d="M601.5 694.332l4 10 4-10-4 4z"/><path stroke="#181818" stroke-width="1.5" stroke-dasharray="1,3" d="M136.5 311.153v19.25M136.5 330.403h241M377.5 330.403v15"/><path fill="#181818" stroke="#181818" d="M373.5 335.403l4 10 4-10-4 4z"/><path d="M144.938 318.07a6.394 6.394 0 00-3.438 1l.486.742a5.466 5.466 0 012.952-.834c1.1 0 2.126.284 2.979.834l.486-.743c-1-.642-2.2-.999-3.465-.999m0 2.75c-.725 0-1.375.21-1.953.577l.486.77c.43-.274.916-.43 1.457-.43s1.064.155 1.495.43l.485-.77a3.737 3.737 0 00-1.98-.577m.01 2.75a.92.92 0 00-.917.917.92.92 0 00.917.916.92.92 0 00.916-.916.92.92 0 00-.917-.917"/><path stroke="#181818" stroke-width="1.5" stroke-dasharray="1,3" d="M377.5 425.364v12.658M377.5 438.022h-241M136.5 438.022v12.658"/><path fill="#181818" stroke="#181818" d="M132.5 440.68l4 10 4-10-4 4z"/><path stroke="#181818" stroke-width="1.5" stroke-dasharray="1,3" d="M377.5 614.121v19.25M377.5 633.371h228M605.5 633.371v15"/><path fill="#181818" stroke="#181818" d="M601.5 638.371l4 10 4-10-4 4z"/><path d="M385.938 621.038a6.394 6.394 0 00-3.438.999l.486.742a5.466 5.466 0 012.952-.834c1.1 0 2.126.284 2.979.834l.486-.742c-1-.642-2.2-1-3.466-1m0 2.75c-.724 0-1.375.212-1.952.578l.486.77c.43-.275.916-.43 1.457-.43s1.064.155 1.495.43l.485-.77a3.737 3.737 0 00-1.98-.577m.01 2.75a.92.92 0 00-.917.916.92.92 0 00.916.917.92.92 0 00.917-.917.92.92 0 00-.916-.916"/><text fill="#ED8E00" font-family="Segoe UI" font-size="18" font-weight="bold" textLength="63" x="58.5" y="32.441">Orange</text><text font-family="Segoe UI" font-size="18" font-weight="bold" textLength="154" x="58.5" y="56.383">Requesting player</text><text fill="#342CD1" font-family="Segoe UI" font-size="18" font-weight="bold" textLength="38" x="322.5" y="32.441">Blue</text><text font-family="Segoe UI" font-size="18" font-weight="bold" textLength="110" x="322.5" y="56.383">Initial Owner</text><text fill="green" font-family="Segoe UI" font-size="18" font-weight="bold" textLength="51" x="547" y="32.441">Green</text><text font-family="Segoe UI" font-size="18" font-weight="bold" textLength="115" x="547" y="56.383">Other players</text></svg>